<mxfile host="app.diagrams.net" modified="2021-12-22T11:59:07.023Z" agent="5.0 (Macintosh; Intel Mac OS X 10_15_7) AppleWebKit/537.36 (KHTML, like Gecko) Chrome/96.0.4664.110 Safari/537.36" etag="8vuZ1YKx1eqSSK857chZ" version="15.3.6" type="github">
  <diagram id="znnTw3gYSQbYOBtTtSOz" name="Page-1">
    <mxGraphModel dx="2066" dy="1129" grid="1" gridSize="10" guides="1" tooltips="1" connect="1" arrows="1" fold="1" page="1" pageScale="1" pageWidth="827" pageHeight="1169" math="0" shadow="0">
      <root>
        <mxCell id="0" />
        <mxCell id="1" parent="0" />
        <mxCell id="CnIlRDrtap7rWqAFLPK--7" style="edgeStyle=none;curved=1;rounded=0;orthogonalLoop=1;jettySize=auto;html=1;entryX=0;entryY=0.5;entryDx=0;entryDy=0;endArrow=open;startSize=14;endSize=14;sourcePerimeterSpacing=8;targetPerimeterSpacing=8;" edge="1" parent="1" source="CnIlRDrtap7rWqAFLPK--1" target="CnIlRDrtap7rWqAFLPK--2">
          <mxGeometry relative="1" as="geometry" />
        </mxCell>
        <mxCell id="CnIlRDrtap7rWqAFLPK--8" style="edgeStyle=none;curved=1;rounded=0;orthogonalLoop=1;jettySize=auto;html=1;entryX=0;entryY=0.5;entryDx=0;entryDy=0;endArrow=open;startSize=14;endSize=14;sourcePerimeterSpacing=8;targetPerimeterSpacing=8;" edge="1" parent="1" source="CnIlRDrtap7rWqAFLPK--1" target="CnIlRDrtap7rWqAFLPK--3">
          <mxGeometry relative="1" as="geometry" />
        </mxCell>
        <mxCell id="CnIlRDrtap7rWqAFLPK--9" style="edgeStyle=none;curved=1;rounded=0;orthogonalLoop=1;jettySize=auto;html=1;entryX=0;entryY=0.5;entryDx=0;entryDy=0;endArrow=open;startSize=14;endSize=14;sourcePerimeterSpacing=8;targetPerimeterSpacing=8;" edge="1" parent="1" source="CnIlRDrtap7rWqAFLPK--1" target="CnIlRDrtap7rWqAFLPK--4">
          <mxGeometry relative="1" as="geometry" />
        </mxCell>
        <mxCell id="CnIlRDrtap7rWqAFLPK--10" style="edgeStyle=none;curved=1;rounded=0;orthogonalLoop=1;jettySize=auto;html=1;entryX=0;entryY=0.5;entryDx=0;entryDy=0;endArrow=open;startSize=14;endSize=14;sourcePerimeterSpacing=8;targetPerimeterSpacing=8;" edge="1" parent="1" source="CnIlRDrtap7rWqAFLPK--1" target="CnIlRDrtap7rWqAFLPK--5">
          <mxGeometry relative="1" as="geometry" />
        </mxCell>
        <mxCell id="CnIlRDrtap7rWqAFLPK--11" style="edgeStyle=none;curved=1;rounded=0;orthogonalLoop=1;jettySize=auto;html=1;entryX=0;entryY=0.5;entryDx=0;entryDy=0;endArrow=open;startSize=14;endSize=14;sourcePerimeterSpacing=8;targetPerimeterSpacing=8;" edge="1" parent="1" source="CnIlRDrtap7rWqAFLPK--1" target="CnIlRDrtap7rWqAFLPK--6">
          <mxGeometry relative="1" as="geometry" />
        </mxCell>
        <mxCell id="CnIlRDrtap7rWqAFLPK--13" style="edgeStyle=none;curved=1;rounded=0;orthogonalLoop=1;jettySize=auto;html=1;entryX=0;entryY=0.5;entryDx=0;entryDy=0;endArrow=open;startSize=14;endSize=14;sourcePerimeterSpacing=8;targetPerimeterSpacing=8;" edge="1" parent="1" source="CnIlRDrtap7rWqAFLPK--1" target="CnIlRDrtap7rWqAFLPK--12">
          <mxGeometry relative="1" as="geometry" />
        </mxCell>
        <mxCell id="CnIlRDrtap7rWqAFLPK--1" value="&lt;span style=&quot;font-size: 16px&quot;&gt;样本&lt;/span&gt;" style="ellipse;whiteSpace=wrap;html=1;hachureGap=4;pointerEvents=0;" vertex="1" parent="1">
          <mxGeometry x="50" y="480" width="120" height="80" as="geometry" />
        </mxCell>
        <mxCell id="CnIlRDrtap7rWqAFLPK--15" value="" style="edgeStyle=none;curved=1;rounded=0;orthogonalLoop=1;jettySize=auto;html=1;endArrow=open;startSize=14;endSize=14;sourcePerimeterSpacing=8;targetPerimeterSpacing=8;" edge="1" parent="1" source="CnIlRDrtap7rWqAFLPK--2" target="CnIlRDrtap7rWqAFLPK--14">
          <mxGeometry relative="1" as="geometry" />
        </mxCell>
        <mxCell id="CnIlRDrtap7rWqAFLPK--2" value="&lt;font style=&quot;font-size: 16px&quot;&gt;涉政词图&lt;/font&gt;" style="shape=parallelogram;perimeter=parallelogramPerimeter;whiteSpace=wrap;html=1;fixedSize=1;hachureGap=4;pointerEvents=0;fillColor=#f0a30a;strokeColor=#BD7000;fontColor=#000000;" vertex="1" parent="1">
          <mxGeometry x="230" y="240" width="160" height="80" as="geometry" />
        </mxCell>
        <mxCell id="CnIlRDrtap7rWqAFLPK--3" value="&lt;font style=&quot;font-size: 16px&quot;&gt;历史词图&lt;/font&gt;" style="shape=parallelogram;perimeter=parallelogramPerimeter;whiteSpace=wrap;html=1;fixedSize=1;hachureGap=4;pointerEvents=0;fillColor=#fff2cc;strokeColor=#d6b656;" vertex="1" parent="1">
          <mxGeometry x="230" y="340" width="160" height="80" as="geometry" />
        </mxCell>
        <mxCell id="CnIlRDrtap7rWqAFLPK--4" value="&lt;font style=&quot;font-size: 16px&quot;&gt;情感词图&lt;/font&gt;" style="shape=parallelogram;perimeter=parallelogramPerimeter;whiteSpace=wrap;html=1;fixedSize=1;hachureGap=4;pointerEvents=0;fillColor=#d5e8d4;strokeColor=#82b366;" vertex="1" parent="1">
          <mxGeometry x="230" y="440" width="160" height="80" as="geometry" />
        </mxCell>
        <mxCell id="CnIlRDrtap7rWqAFLPK--5" value="&lt;font style=&quot;font-size: 16px&quot;&gt;白样本词图&lt;/font&gt;" style="shape=parallelogram;perimeter=parallelogramPerimeter;whiteSpace=wrap;html=1;fixedSize=1;hachureGap=4;pointerEvents=0;fillColor=#f5f5f5;strokeColor=#666666;fontColor=#333333;" vertex="1" parent="1">
          <mxGeometry x="230" y="545" width="160" height="80" as="geometry" />
        </mxCell>
        <mxCell id="CnIlRDrtap7rWqAFLPK--6" value="&lt;span style=&quot;font-size: 16px&quot;&gt;变形变异&lt;/span&gt;" style="shape=parallelogram;perimeter=parallelogramPerimeter;whiteSpace=wrap;html=1;fixedSize=1;hachureGap=4;pointerEvents=0;fillColor=#e1d5e7;strokeColor=#9673a6;" vertex="1" parent="1">
          <mxGeometry x="230" y="640" width="160" height="80" as="geometry" />
        </mxCell>
        <mxCell id="CnIlRDrtap7rWqAFLPK--12" value="&lt;span style=&quot;font-size: 16px&quot;&gt;......&lt;/span&gt;" style="shape=parallelogram;perimeter=parallelogramPerimeter;whiteSpace=wrap;html=1;fixedSize=1;hachureGap=4;pointerEvents=0;" vertex="1" parent="1">
          <mxGeometry x="230" y="740" width="160" height="80" as="geometry" />
        </mxCell>
        <mxCell id="CnIlRDrtap7rWqAFLPK--23" value="" style="edgeStyle=none;curved=1;rounded=0;orthogonalLoop=1;jettySize=auto;html=1;endArrow=open;startSize=14;endSize=14;sourcePerimeterSpacing=8;targetPerimeterSpacing=8;" edge="1" parent="1" source="CnIlRDrtap7rWqAFLPK--14" target="CnIlRDrtap7rWqAFLPK--22">
          <mxGeometry relative="1" as="geometry" />
        </mxCell>
        <mxCell id="CnIlRDrtap7rWqAFLPK--14" value="&lt;font style=&quot;font-size: 16px&quot;&gt;子图&lt;/font&gt;" style="ellipse;whiteSpace=wrap;html=1;strokeColor=#BD7000;fillColor=#f0a30a;hachureGap=4;fontColor=#000000;" vertex="1" parent="1">
          <mxGeometry x="440" y="250" width="80" height="60" as="geometry" />
        </mxCell>
        <mxCell id="CnIlRDrtap7rWqAFLPK--16" value="&lt;font style=&quot;font-size: 17px&quot;&gt;......&lt;/font&gt;" style="text;html=1;align=center;verticalAlign=middle;resizable=0;points=[];autosize=1;strokeColor=none;fillColor=none;" vertex="1" parent="1">
          <mxGeometry x="460" y="370" width="40" height="20" as="geometry" />
        </mxCell>
        <mxCell id="CnIlRDrtap7rWqAFLPK--17" value="&lt;font style=&quot;font-size: 17px&quot;&gt;......&lt;/font&gt;" style="text;html=1;align=center;verticalAlign=middle;resizable=0;points=[];autosize=1;strokeColor=none;fillColor=none;" vertex="1" parent="1">
          <mxGeometry x="460" y="470" width="40" height="20" as="geometry" />
        </mxCell>
        <mxCell id="CnIlRDrtap7rWqAFLPK--18" value="&lt;font style=&quot;font-size: 17px&quot;&gt;......&lt;/font&gt;" style="text;html=1;align=center;verticalAlign=middle;resizable=0;points=[];autosize=1;strokeColor=none;fillColor=none;" vertex="1" parent="1">
          <mxGeometry x="460" y="570" width="40" height="20" as="geometry" />
        </mxCell>
        <mxCell id="CnIlRDrtap7rWqAFLPK--19" value="&lt;font style=&quot;font-size: 17px&quot;&gt;......&lt;/font&gt;" style="text;html=1;align=center;verticalAlign=middle;resizable=0;points=[];autosize=1;strokeColor=none;fillColor=none;" vertex="1" parent="1">
          <mxGeometry x="460" y="670" width="40" height="20" as="geometry" />
        </mxCell>
        <mxCell id="CnIlRDrtap7rWqAFLPK--20" value="&lt;font style=&quot;font-size: 17px&quot;&gt;......&lt;/font&gt;" style="text;html=1;align=center;verticalAlign=middle;resizable=0;points=[];autosize=1;strokeColor=none;fillColor=none;" vertex="1" parent="1">
          <mxGeometry x="460" y="760" width="40" height="20" as="geometry" />
        </mxCell>
        <mxCell id="CnIlRDrtap7rWqAFLPK--30" style="edgeStyle=none;curved=1;rounded=0;orthogonalLoop=1;jettySize=auto;html=1;entryX=0.4;entryY=0.1;entryDx=0;entryDy=0;entryPerimeter=0;endArrow=open;startSize=14;endSize=14;sourcePerimeterSpacing=8;targetPerimeterSpacing=8;" edge="1" parent="1" source="CnIlRDrtap7rWqAFLPK--22" target="CnIlRDrtap7rWqAFLPK--29">
          <mxGeometry relative="1" as="geometry" />
        </mxCell>
        <mxCell id="CnIlRDrtap7rWqAFLPK--22" value="&lt;font style=&quot;font-size: 17px&quot;&gt;GNN&lt;/font&gt;" style="whiteSpace=wrap;html=1;strokeColor=#BD7000;fillColor=#f0a30a;hachureGap=4;fontColor=#000000;" vertex="1" parent="1">
          <mxGeometry x="560" y="250" width="80" height="60" as="geometry" />
        </mxCell>
        <mxCell id="CnIlRDrtap7rWqAFLPK--31" style="edgeStyle=none;curved=1;rounded=0;orthogonalLoop=1;jettySize=auto;html=1;entryX=0.25;entryY=0.25;entryDx=0;entryDy=0;entryPerimeter=0;endArrow=open;startSize=14;endSize=14;sourcePerimeterSpacing=8;targetPerimeterSpacing=8;" edge="1" parent="1" source="CnIlRDrtap7rWqAFLPK--24" target="CnIlRDrtap7rWqAFLPK--29">
          <mxGeometry relative="1" as="geometry" />
        </mxCell>
        <mxCell id="CnIlRDrtap7rWqAFLPK--24" value="&lt;font style=&quot;font-size: 17px&quot;&gt;......&lt;/font&gt;" style="text;html=1;align=center;verticalAlign=middle;resizable=0;points=[];autosize=1;strokeColor=none;fillColor=none;" vertex="1" parent="1">
          <mxGeometry x="580" y="370" width="40" height="20" as="geometry" />
        </mxCell>
        <mxCell id="CnIlRDrtap7rWqAFLPK--32" style="edgeStyle=none;curved=1;rounded=0;orthogonalLoop=1;jettySize=auto;html=1;entryX=0.07;entryY=0.4;entryDx=0;entryDy=0;entryPerimeter=0;endArrow=open;startSize=14;endSize=14;sourcePerimeterSpacing=8;targetPerimeterSpacing=8;" edge="1" parent="1" source="CnIlRDrtap7rWqAFLPK--25" target="CnIlRDrtap7rWqAFLPK--29">
          <mxGeometry relative="1" as="geometry" />
        </mxCell>
        <mxCell id="CnIlRDrtap7rWqAFLPK--25" value="&lt;font style=&quot;font-size: 17px&quot;&gt;......&lt;/font&gt;" style="text;html=1;align=center;verticalAlign=middle;resizable=0;points=[];autosize=1;strokeColor=none;fillColor=none;" vertex="1" parent="1">
          <mxGeometry x="580" y="470" width="40" height="20" as="geometry" />
        </mxCell>
        <mxCell id="CnIlRDrtap7rWqAFLPK--33" style="edgeStyle=none;curved=1;rounded=0;orthogonalLoop=1;jettySize=auto;html=1;entryX=0.075;entryY=0.75;entryDx=0;entryDy=0;entryPerimeter=0;endArrow=open;startSize=14;endSize=14;sourcePerimeterSpacing=8;targetPerimeterSpacing=8;" edge="1" parent="1" source="CnIlRDrtap7rWqAFLPK--26" target="CnIlRDrtap7rWqAFLPK--29">
          <mxGeometry relative="1" as="geometry" />
        </mxCell>
        <mxCell id="CnIlRDrtap7rWqAFLPK--26" value="&lt;font style=&quot;font-size: 17px&quot;&gt;......&lt;/font&gt;" style="text;html=1;align=center;verticalAlign=middle;resizable=0;points=[];autosize=1;strokeColor=none;fillColor=none;" vertex="1" parent="1">
          <mxGeometry x="580" y="570" width="40" height="20" as="geometry" />
        </mxCell>
        <mxCell id="CnIlRDrtap7rWqAFLPK--34" style="edgeStyle=none;curved=1;rounded=0;orthogonalLoop=1;jettySize=auto;html=1;entryX=0.31;entryY=0.8;entryDx=0;entryDy=0;entryPerimeter=0;endArrow=open;startSize=14;endSize=14;sourcePerimeterSpacing=8;targetPerimeterSpacing=8;" edge="1" parent="1" source="CnIlRDrtap7rWqAFLPK--27" target="CnIlRDrtap7rWqAFLPK--29">
          <mxGeometry relative="1" as="geometry" />
        </mxCell>
        <mxCell id="CnIlRDrtap7rWqAFLPK--27" value="&lt;font style=&quot;font-size: 17px&quot;&gt;......&lt;/font&gt;" style="text;html=1;align=center;verticalAlign=middle;resizable=0;points=[];autosize=1;strokeColor=none;fillColor=none;" vertex="1" parent="1">
          <mxGeometry x="580" y="670" width="40" height="20" as="geometry" />
        </mxCell>
        <mxCell id="CnIlRDrtap7rWqAFLPK--35" style="edgeStyle=none;curved=1;rounded=0;orthogonalLoop=1;jettySize=auto;html=1;entryX=0.492;entryY=0.963;entryDx=0;entryDy=0;entryPerimeter=0;endArrow=open;startSize=14;endSize=14;sourcePerimeterSpacing=8;targetPerimeterSpacing=8;" edge="1" parent="1" source="CnIlRDrtap7rWqAFLPK--28" target="CnIlRDrtap7rWqAFLPK--29">
          <mxGeometry relative="1" as="geometry" />
        </mxCell>
        <mxCell id="CnIlRDrtap7rWqAFLPK--28" value="&lt;font style=&quot;font-size: 17px&quot;&gt;......&lt;/font&gt;" style="text;html=1;align=center;verticalAlign=middle;resizable=0;points=[];autosize=1;strokeColor=none;fillColor=none;" vertex="1" parent="1">
          <mxGeometry x="580" y="760" width="40" height="20" as="geometry" />
        </mxCell>
        <mxCell id="CnIlRDrtap7rWqAFLPK--29" value="&lt;font style=&quot;font-size: 16px&quot;&gt;特征融合&lt;/font&gt;" style="ellipse;shape=cloud;whiteSpace=wrap;html=1;hachureGap=4;pointerEvents=0;fillColor=#ffe6cc;strokeColor=#d79b00;" vertex="1" parent="1">
          <mxGeometry x="700" y="480" width="120" height="80" as="geometry" />
        </mxCell>
      </root>
    </mxGraphModel>
  </diagram>
</mxfile>
